<?xml version="1.0" standalone="no"?>
<!DOCTYPE svg PUBLIC "-//W3C//DTD SVG 20010904//EN"
 "http://www.w3.org/TR/2001/REC-SVG-20010904/DTD/svg10.dtd">
<svg version="1.0" xmlns="http://www.w3.org/2000/svg"
 width="1536.000000pt" height="1024.000000pt" viewBox="0 0 1536.000000 1024.000000"
 preserveAspectRatio="xMidYMid meet">

<g transform="translate(0.000000,1024.000000) scale(0.100000,-0.100000)"
fill="#000000" stroke="none">
<path d="M3650 8260 c-24 -12 -59 -32 -77 -46 -42 -32 -91 -116 -99 -171 -6
-38 -13 -47 -83 -99 -111 -84 -288 -265 -353 -364 -104 -157 -176 -325 -214
-500 -15 -68 -19 -126 -19 -285 1 -224 12 -293 80 -504 30 -94 35 -118 26
-138 -20 -44 -11 -78 49 -186 259 -467 550 -720 960 -837 l95 -27 12 -60 c22
-109 52 -173 107 -227 l50 -51 -3 -70 c-13 -317 -198 -614 -508 -818 -57 -37
-149 -97 -205 -134 -118 -77 -301 -252 -366 -349 -203 -303 -235 -620 -92
-907 114 -228 326 -395 587 -464 80 -21 123 -26 233 -27 244 -2 436 58 650
205 275 188 474 462 643 884 l44 110 66 7 c84 8 126 21 203 64 184 101 294
321 265 528 -29 204 -174 372 -370 430 -72 21 -220 21 -292 0 -320 -94 -470
-439 -323 -743 35 -72 151 -189 224 -226 30 -15 56 -28 58 -30 5 -4 -65 -179
-110 -275 -163 -349 -438 -628 -722 -735 -152 -57 -349 -73 -498 -39 -370 83
-624 411 -579 749 33 242 166 452 401 632 30 22 113 78 183 122 169 107 234
157 342 266 170 170 270 360 310 585 8 47 15 108 15 136 0 81 9 109 41 128 57
33 105 130 136 270 l8 38 91 23 c239 60 446 185 640 388 111 116 196 230 301
409 79 134 92 174 74 224 -10 28 -7 48 28 165 63 212 75 290 75 489 1 131 -4
196 -17 260 -72 339 -250 620 -542 855 -83 67 -93 78 -99 115 -14 88 -81 179
-163 220 -69 35 -176 40 -237 11 -48 -24 -88 -69 -113 -128 -25 -60 -14 -170
23 -230 59 -95 192 -156 295 -134 27 6 67 20 89 31 22 11 45 20 53 20 17 0
135 -98 205 -169 122 -126 234 -307 287 -461 85 -249 80 -546 -12 -843 -27
-85 -30 -89 -66 -102 -55 -19 -64 -29 -117 -135 -80 -160 -183 -304 -299 -421
-202 -201 -424 -303 -692 -316 -262 -13 -494 62 -710 229 -145 112 -286 294
-399 515 -52 103 -76 129 -124 135 -14 2 -28 6 -31 9 -9 10 -55 172 -76 269
-26 122 -36 331 -20 440 27 179 93 350 198 509 63 95 264 303 326 336 36 19
38 19 65 2 56 -37 98 -50 162 -49 116 1 200 53 251 158 29 58 31 70 26 130 -6
84 -43 147 -111 189 -65 40 -168 46 -236 15z m184 -89 c71 -40 95 -126 56
-206 -73 -152 -302 -134 -318 24 -6 66 2 93 40 136 63 72 145 89 222 46z
m1045 1 c59 -29 94 -84 98 -150 3 -45 0 -64 -16 -90 -55 -86 -180 -97 -265
-23 -50 44 -71 143 -42 199 16 30 53 66 76 75 33 12 116 6 149 -11z m-1797
-2024 c8 -7 36 -53 63 -103 196 -370 448 -600 776 -709 140 -47 242 -60 408
-53 449 18 817 280 1067 761 56 108 78 126 118 95 33 -26 33 -37 -4 -109 -127
-252 -303 -471 -489 -608 -138 -103 -334 -192 -486 -221 -33 -7 -69 -14 -81
-16 -17 -4 -22 -16 -32 -90 -17 -129 -55 -204 -117 -230 -94 -40 -162 46 -189
239 l-12 79 -84 17 c-159 33 -313 98 -455 192 -107 70 -304 268 -382 384 -76
111 -183 302 -183 326 0 15 44 58 59 58 4 0 14 -6 23 -12z m2280 -2056 c216
-106 298 -377 176 -580 -119 -197 -376 -260 -575 -140 -70 42 -117 95 -157
178 -29 60 -31 73 -31 170 0 97 2 110 31 171 53 112 128 178 249 222 38 13 73
17 146 14 84 -2 103 -6 161 -35z"/>
<path d="M5130 3958 c-60 -10 -118 -53 -155 -113 -27 -43 -30 -57 -30 -125 0
-68 3 -82 30 -126 79 -127 256 -152 369 -52 72 63 98 167 67 262 -16 45 -72
111 -114 132 -41 22 -114 31 -167 22z m121 -113 c43 -23 69 -71 69 -129 0 -43
-4 -53 -38 -87 -43 -42 -76 -54 -127 -45 -72 14 -124 89 -111 161 8 39 49 93
80 105 34 14 95 11 127 -5z"/>
<path d="M7872 6673 c-40 -19 -63 -61 -64 -112 0 -47 11 -69 57 -110 106 -92
267 50 200 178 -28 56 -125 78 -193 44z"/>
<path d="M6588 6650 c-269 -33 -492 -226 -574 -495 -14 -46 -18 -92 -18 -200
1 -124 4 -149 27 -220 59 -178 172 -312 329 -389 126 -62 198 -79 338 -79 200
0 350 58 488 188 l76 71 -40 29 c-21 16 -61 47 -87 68 l-48 39 -52 -49 c-97
-92 -200 -133 -334 -133 -178 0 -323 84 -405 236 -53 99 -74 259 -47 373 28
123 138 262 249 313 195 91 422 47 536 -102 l37 -49 41 32 c23 17 64 50 92 73
l52 41 -24 31 c-32 41 -135 117 -206 153 -118 60 -287 87 -430 69z"/>
<path d="M7370 5965 l0 -675 110 0 110 0 0 675 0 675 -110 0 -110 0 0 -675z"/>
<path d="M9370 5965 l0 -675 110 0 111 0 -3 490 c-2 270 -1 490 2 490 3 0 108
-221 235 -490 l229 -490 56 0 55 1 225 485 c124 267 228 488 233 490 4 3 7
-216 7 -485 l0 -491 105 0 105 0 0 675 0 676 -142 -3 -143 -3 -215 -497 c-118
-274 -217 -497 -220 -498 -3 0 -95 197 -205 438 -109 240 -212 465 -228 500
l-29 62 -144 0 -144 0 0 -675z"/>
<path d="M12880 6394 l0 -246 -45 36 c-101 84 -233 114 -368 86 -176 -36 -319
-181 -363 -366 -22 -94 -15 -247 15 -326 54 -140 158 -243 291 -288 55 -18 81
-21 165 -18 118 5 168 25 250 99 29 27 56 49 59 49 3 0 6 -29 6 -65 l0 -65
103 0 102 0 0 675 0 675 -107 0 -108 0 0 -246z m-153 -329 c89 -37 150 -134
160 -253 11 -136 -37 -249 -130 -306 -42 -26 -61 -30 -136 -34 -111 -5 -171
17 -236 90 -53 59 -75 123 -75 219 0 150 87 263 227 299 49 12 143 5 190 -15z"/>
<path d="M8674 6259 c-29 -11 -78 -43 -112 -75 l-62 -56 0 44 c0 89 0 88 -111
88 l-99 0 0 -485 0 -485 104 0 105 0 4 303 c4 344 6 357 78 428 111 113 289
77 341 -68 10 -29 13 -115 13 -350 l0 -313 108 0 109 0 -4 368 c-4 356 -5 369
-27 427 -32 81 -109 158 -182 179 -74 22 -201 20 -265 -5z"/>
<path d="M11366 6269 c-110 -26 -229 -126 -287 -242 -96 -190 -69 -453 63
-603 46 -52 140 -111 217 -135 85 -27 248 -29 340 -5 67 17 177 71 223 109
l26 22 -64 68 -64 68 -43 -30 c-68 -47 -117 -63 -208 -68 -115 -7 -180 12
-247 72 -51 46 -77 89 -88 144 l-6 31 366 0 366 0 0 73 c0 166 -50 299 -146
386 -66 60 -111 85 -191 106 -62 16 -195 18 -257 4z m265 -196 c60 -31 105
-92 116 -156 l6 -37 -262 0 c-143 0 -261 3 -261 8 1 65 68 153 145 188 75 35
182 34 256 -3z"/>
<path d="M7830 5775 l0 -485 110 0 110 0 0 485 0 485 -110 0 -110 0 0 -485z"/>
<path d="M6340 4964 c-123 -33 -213 -102 -260 -199 -20 -42 -24 -65 -24 -140
0 -107 21 -162 83 -224 58 -58 139 -95 310 -140 168 -45 201 -59 249 -104 69
-66 64 -196 -10 -263 -70 -64 -206 -91 -327 -64 -67 15 -158 58 -213 101 -21
17 -40 30 -42 28 -2 -2 -18 -28 -36 -57 -32 -53 -32 -54 -14 -72 33 -33 134
-88 203 -112 57 -20 86 -23 206 -23 154 1 203 13 297 75 154 102 185 342 62
479 -60 67 -134 101 -326 151 -166 44 -228 74 -266 130 -21 30 -23 44 -20 107
3 62 7 77 34 110 17 21 56 51 89 68 51 25 69 29 144 29 98 0 187 -25 265 -74
26 -17 48 -30 50 -30 2 0 20 27 39 60 l36 60 -22 14 c-51 34 -158 77 -223 91
-87 19 -213 18 -284 -1z"/>
<path d="M7120 4740 l0 -120 -65 0 -65 0 0 -65 0 -65 64 0 65 0 3 -302 3 -303
28 -57 c33 -68 82 -111 143 -128 62 -18 188 -8 246 18 l47 20 -19 39 c-10 22
-22 51 -25 66 -8 32 -6 32 -47 7 -23 -14 -51 -20 -90 -20 -68 0 -111 30 -128
88 -5 21 -10 153 -10 305 l0 267 135 0 135 0 0 65 0 65 -135 0 -135 0 0 120 0
120 -75 0 -75 0 0 -120z"/>
<path d="M9012 4639 c-29 -5 -66 -16 -81 -24 -34 -17 -90 -69 -113 -105 -15
-25 -16 -24 -23 43 l-7 67 -69 0 -69 0 0 -455 0 -455 75 0 75 0 0 270 c0 156
5 290 11 320 15 70 65 139 123 169 38 19 62 24 122 24 l74 0 0 74 c0 52 -4 73
-12 73 -7 0 -22 2 -33 4 -11 2 -44 0 -73 -5z"/>
<path d="M7878 4621 c-51 -17 -148 -66 -148 -76 0 -2 10 -28 21 -59 l22 -55
41 24 c84 49 216 68 312 44 81 -21 134 -93 134 -185 0 -28 -3 -32 -37 -38 -21
-3 -64 -6 -95 -6 -31 0 -91 -5 -134 -11 -197 -27 -297 -111 -311 -262 -11
-119 37 -217 135 -275 43 -25 55 -27 152 -27 91 0 112 3 155 24 27 14 69 44
92 68 l43 42 1 -52 c1 -28 1 -55 0 -59 0 -5 33 -8 75 -8 l75 0 -3 348 c-3 340
-3 348 -27 399 -27 62 -93 126 -159 156 -67 31 -262 35 -344 8z m382 -538 c0
-104 -20 -157 -73 -198 -71 -54 -207 -72 -277 -37 -49 24 -80 75 -80 129 0
127 111 189 343 192 l87 1 0 -87z"/>
<path d="M9414 4626 c-62 -20 -130 -71 -160 -121 -55 -94 -40 -226 34 -298 46
-45 99 -69 231 -102 57 -14 116 -32 130 -40 98 -51 101 -149 7 -219 -20 -15
-46 -22 -100 -24 -90 -5 -158 13 -241 63 l-60 36 -23 -28 c-57 -68 -58 -73
-31 -94 92 -71 212 -109 341 -109 147 0 249 54 300 158 30 64 31 170 1 227
-45 85 -106 121 -284 165 -68 17 -134 37 -147 46 -50 33 -60 109 -21 165 52
75 240 79 379 9 l35 -17 38 59 37 59 -52 24 c-29 13 -80 31 -113 40 -72 18
-243 19 -301 1z"/>
</g>
</svg>
